<?xml version="1.0" encoding="utf-8" standalone="yes"?>
<!DOCTYPE svg PUBLIC "-//W3C//DTD SVG 1.1//EN" "http://www.w3.org/Graphics/SVG/1.1/DTD/svg11.dtd">
<svg style="fill:none;stroke:none;fill-rule:evenodd;clip-rule:evenodd;stroke-linecap:round;stroke-linejoin:round;stroke-miterlimit:1.5;" version="1.1" xmlns="http://www.w3.org/2000/svg" xmlns:xlink="http://www.w3.org/1999/xlink" width="1011" height="518" viewBox="0 0 1011 518"><style class="text-font-style fontImports" data-font-family="Roboto">@import url(https://fonts.googleapis.com/css2?family=Roboto:wght@400;700&amp;amp;display=block);</style><g id="items" style="isolation: isolate"><g id="blend" style="mix-blend-mode: normal"><g id="g-root-cp_1_g-1_qvx7s8snuex1-fill" data-item-order="-484610" transform="translate(27, 225)"><g id="cp_1_g-1_qvx7s8snuex1-fill-merged" stroke="none" fill="#3e4e69" fill-opacity="1"><g><path d="M10 244C10 250.63 15.37 256 22 256 H166C172.63 256 178 250.63 178 244 V46C178 39.37 172.63 34 166 34 H118L94 10L70 34 H22C15.38 34 10 39.37 10 46 V244"></path></g></g></g><g id="g-root-cp_1_g-1_qvx7s8snuex1-stroke" data-item-order="-484610" transform="translate(27, 225)"><g id="cp_1_g-1_qvx7s8snuex1-stroke" fill="none" stroke-linecap="round" stroke-linejoin="round" stroke-miterlimit="4" stroke="#f4f4f4" stroke-width="1" stroke-opacity="1"><g><path d="M 10 58L 10 46C 10 39.37 15.38 34 22 34L 70 34L 94 10L 118 34L 166 34C 172.63 34 178 39.37 178 46L 178 58M 178 58L 178 232M 10 232L 10 58M 178 232L 178 244C 178 250.63 172.63 256 166 256L 22 256C 15.37 256 10 250.63 10 244L 10 232"></path></g></g></g><g id="g-root-cp_2_g-2_i0womgsnucjy-fill" data-item-order="-484586" transform="translate(219, 225)"><g id="cp_2_g-2_i0womgsnucjy-fill-merged" stroke="none" fill="#3e4e69" fill-opacity="1"><g><path d="M10 244C10 250.63 15.37 256 22 256 H166C172.63 256 178 250.63 178 244 V46C178 39.37 172.63 34 166 34 H118L94 10L70 34 H22C15.38 34 10 39.37 10 46 V244"></path></g></g></g><g id="g-root-cp_2_g-2_i0womgsnucjy-stroke" data-item-order="-484586" transform="translate(219, 225)"><g id="cp_2_g-2_i0womgsnucjy-stroke" fill="none" stroke-linecap="round" stroke-linejoin="round" stroke-miterlimit="4" stroke="#f4f4f4" stroke-width="1" stroke-opacity="1"><g><path d="M 10 58L 10 46C 10 39.37 15.38 34 22 34L 70 34L 94 10L 118 34L 166 34C 172.63 34 178 39.37 178 46L 178 58M 178 58L 178 232M 10 232L 10 58M 178 232L 178 244C 178 250.63 172.63 256 166 256L 22 256C 15.37 256 10 250.63 10 244L 10 232"></path></g></g></g><g id="g-root-cp_3_g-3_dl36i0snudc7-fill" data-item-order="-484562" transform="translate(411, 225)"><g id="cp_3_g-3_dl36i0snudc7-fill-merged" stroke="none" fill="#3e4e69" fill-opacity="1"><g><path d="M10 244C10 250.63 15.37 256 22 256 H166C172.63 256 178 250.63 178 244 V46C178 39.37 172.63 34 166 34 H118L94 10L70 34 H22C15.38 34 10 39.37 10 46 V244"></path></g></g></g><g id="g-root-cp_3_g-3_dl36i0snudc7-stroke" data-item-order="-484562" transform="translate(411, 225)"><g id="cp_3_g-3_dl36i0snudc7-stroke" fill="none" stroke-linecap="round" stroke-linejoin="round" stroke-miterlimit="4" stroke="#f4f4f4" stroke-width="1" stroke-opacity="1"><g><path d="M 10 58L 10 46C 10 39.37 15.38 34 22 34L 70 34L 94 10L 118 34L 166 34C 172.63 34 178 39.37 178 46L 178 58M 178 58L 178 232M 10 232L 10 58M 178 232L 178 244C 178 250.63 172.63 256 166 256L 22 256C 15.37 256 10 250.63 10 244L 10 232"></path></g></g></g><g id="g-root-cp_4_g-4_959odksnue4g-fill" data-item-order="-484538" transform="translate(603, 225)"><g id="cp_4_g-4_959odksnue4g-fill-merged" stroke="none" fill="#3e4e69" fill-opacity="1"><g><path d="M10 244C10 250.63 15.37 256 22 256 H166C172.63 256 178 250.63 178 244 V46C178 39.37 172.63 34 166 34 H118L94 10L70 34 H22C15.38 34 10 39.37 10 46 V244"></path></g></g></g><g id="g-root-cp_4_g-4_959odksnue4g-stroke" data-item-order="-484538" transform="translate(603, 225)"><g id="cp_4_g-4_959odksnue4g-stroke" fill="none" stroke-linecap="round" stroke-linejoin="round" stroke-miterlimit="4" stroke="#f4f4f4" stroke-width="1" stroke-opacity="1"><g><path d="M 10 58L 10 46C 10 39.37 15.38 34 22 34L 70 34L 94 10L 118 34L 166 34C 172.63 34 178 39.37 178 46L 178 58M 178 58L 178 232M 10 232L 10 58M 178 232L 178 244C 178 250.63 172.63 256 166 256L 22 256C 15.37 256 10 250.63 10 244L 10 232"></path></g></g></g><g id="g-root-cp_5_g-5_959odksnue4h-fill" data-item-order="-484514" transform="translate(795, 225)"><g id="cp_5_g-5_959odksnue4h-fill-merged" stroke="none" fill="#3e4e69" fill-opacity="1"><g><path d="M10 244C10 250.63 15.37 256 22 256 H166C172.63 256 178 250.63 178 244 V46C178 39.37 172.63 34 166 34 H118L94 10L70 34 H22C15.38 34 10 39.37 10 46 V244"></path></g></g></g><g id="g-root-cp_5_g-5_959odksnue4h-stroke" data-item-order="-484514" transform="translate(795, 225)"><g id="cp_5_g-5_959odksnue4h-stroke" fill="none" stroke-linecap="round" stroke-linejoin="round" stroke-miterlimit="4" stroke="#f4f4f4" stroke-width="1" stroke-opacity="1"><g><path d="M 10 58L 10 46C 10 39.37 15.38 34 22 34L 70 34L 94 10L 118 34L 166 34C 172.63 34 178 39.37 178 46L 178 58M 178 58L 178 232M 10 232L 10 58M 178 232L 178 244C 178 250.63 172.63 256 166 256L 22 256C 15.37 256 10 250.63 10 244L 10 232"></path></g></g></g><g id="g-root-tx_vehiclel_9mo4osnuex6-fill" data-item-order="0" transform="translate(376.1171875, 3)"><g id="tx_vehiclel_9mo4osnuex6-fill-merged" stroke="none" fill="#f4f4f4" fill-opacity="1"><g><text style="font-style: normal; font-variant-caps: normal; font-weight: bold; font-width: normal; font-size: 25px; line-height: normal; font-family: Roboto, sans-serif; font-size-adjust: none; font-kerning: auto; font-variant-alternates: normal; font-variant-ligatures: normal; font-variant-numeric: normal; font-variant-east-asian: normal; font-variant-position: normal; font-variant-emoji: normal; font-feature-settings: normal; font-optical-sizing: auto; font-variation-settings: normal; white-space: pre;" transform="translate(129.3828125, 25)"><tspan x="-117.38" y="14" dominant-baseline="ideographic">Vehicle Lab Features</tspan></text></g></g></g><g id="g-root-tx_vehiclel_9mo4osnuex6-stroke" data-item-order="0" transform="translate(376.1171875, 3)"></g><g id="g-root-ic_sear_dildbcsnlyq5-fill" data-item-order="0" transform="translate(51, 81)"></g><g id="g-root-ic_sear_dildbcsnlyq5-stroke" data-item-order="0" transform="translate(51, 81)"><g id="ic_sear_dildbcsnlyq5-stroke" fill="none" stroke-linecap="round" stroke-linejoin="round" stroke-miterlimit="4" stroke="#f4f4f4" stroke-width="1" stroke-opacity="1"><g><path d="M 28.74 47.579998C 33.731663 28.076296 52.441002 15.321772 72.419914 17.802542C 92.398827 20.283312 107.420654 37.226215 107.490753 57.358433C 107.560844 77.490654 92.657356 94.537743 72.696205 97.157578C 52.735054 99.777405 33.937355 87.153473 28.810001 67.684998M 93.170006 88.18L 127.5 122.5M 12.5 57.5L 41.059998 57.5C 41.951355 57.498192 42.774323 57.021938 43.220001 56.25L 49.630001 45.169998C 50.124702 44.307896 51.083122 43.820747 52.071144 43.929203C 53.059166 44.037659 53.889088 44.721111 54.184998 45.669998L 60.685001 66.729996C 60.986347 67.70591 61.851048 68.400368 62.868996 68.484009C 63.886948 68.567642 64.853409 68.023636 65.309998 67.110001L 73.095001 51.544998C 73.493469 50.748314 74.285751 50.223831 75.174797 50.168205C 76.063835 50.112572 76.915321 50.534203 77.410004 51.275002L 83.095001 59.805C 83.540359 60.474476 84.280548 60.888878 85.084084 60.918598C 85.887611 60.948326 86.656395 60.589745 87.150002 59.955002L 94.895004 50"></path></g></g></g><g id="g-root-ic_up_i0wuy0snor2h-fill" data-item-order="0" transform="translate(243, 81)"></g><g id="g-root-ic_up_i0wuy0snor2h-stroke" data-item-order="0" transform="translate(243, 81)"><g id="ic_up_i0wuy0snor2h-stroke" fill="none" stroke-linecap="round" stroke-linejoin="round" stroke-miterlimit="4" stroke="#f4f4f4" stroke-width="1" stroke-opacity="1"><g><path d="M 13.75 126.25C 21.216801 126.25 28.683651 126.25 36.150452 118.75C 43.617252 126.25 51.084053 126.25 53.075199 126.25C 55.066353 126.25 62.533001 126.25 70 118.75C 77.466995 126.25 84.933502 126.25 86.925003 126.25C 88.916 126.25 96.382507 126.25 103.849495 118.75C 111.316498 126.25 118.782997 126.25 126.25 126.25M 110.75 31.97905C 119.929001 31.97905 127.370499 27.89835 127.370499 22.86455C 127.370499 17.8307 119.929001 13.75 110.75 13.75C 101.570503 13.75 94.129494 17.8307 94.129494 22.86455C 94.129494 27.89835 101.570503 31.97905 110.75 31.97905ZM 94.129494 22.86425L 94.129494 47.5271C 94.129494 52.352451 101.635506 56.641651 110.75 56.641651C 119.864502 56.641651 127.370499 52.352451 127.370499 47.5271L 127.370499 22.86425M 21.4813 106.999504C 21.4813 105.343002 20.9291 103.686508 19.2724 102.029495L 15.95895 98.716003C 13.750015 97.059494 13.19776 93.746002 14.30223 91.537003C 15.4067 88.776001 17.61565 87.671501 20.37685 87.671501L 24.79475 87.671501C 26.45145 87.671501 28.660351 87.119499 29.764851 86.014999C 30.869301 84.9105 31.421549 83.281006 31.421549 81.044502L 31.421549 76.626999C 31.421549 73.865501 33.078251 71.1045 35.287201 70.552002C 38.048351 69.447998 40.809551 70 42.466248 72.209L 45.779701 75.522499C 46.884151 76.626999 48.540848 77.731499 50.749798 77.731499C 52.958698 77.731499 54.063148 77.179001 55.719849 75.522499L 59.033298 72.209C 60.689999 70 64.003502 69.447998 66.212502 70.552002C 68.973495 71.656502 70.078003 73.865501 70.078003 76.626999L 70.078003 81.044502C 70.078003 82.7015 70.630501 84.9105 71.734497 86.014999C 72.838997 87.119499 75.047997 88.223999 76.705002 87.671501L 81.122498 87.671501C 83.884003 87.671501 86.645004 89.327995 87.197502 91.537003C 88.302002 94.298492 87.749496 97.059494 85.540497 98.716003L 82.227005 102.029495C 81.122498 103.134003 80.017998 104.791 80.017998 106.999504M 38.600449 106.999504C 38.600449 100.372498 44.122852 94.298004 51.301899 94.298004C 57.928699 94.298004 63.451 99.820007 63.451 106.999504M 110.75 68.499496L 110.75 104.999504M 10 10M 100.75 78.5L 110.75 68.5L 120.75 78.5M 127.370499 35.099152C 127.370499 40.239552 119.929504 44.4067 110.75 44.4067C 101.570503 44.4067 94.129494 40.239552 94.129494 35.099152"></path></g></g></g><g id="g-root-ic_cont_1lpwe5ksxliiz-fill" data-item-order="0" transform="translate(435, 81)"></g><g id="g-root-ic_cont_1lpwe5ksxliiz-stroke" data-item-order="0" transform="translate(435, 81)"><g id="ic_cont_1lpwe5ksxliiz-stroke" fill="none" stroke-linecap="round" stroke-linejoin="round" stroke-miterlimit="4" stroke="#f4f4f4" stroke-width="1" stroke-opacity="1"><g><path d="M 52.5 51.25L 60 51.25M 90 51.25L 97.5 51.25M 45 66.25L 45 73.75M 105 66.25L 105 73.75M 92 13.75C 95 13.75 98 15.75 99 18.75L 105 36.25L 111 45.75C 112 46.75 112.5 48.25 112.5 49.75L 112.5 58.75C 112.5 62.75 109 66.25 105 66.25L 45 66.25C 41 66.25 37.5 62.75 37.5 58.75L 37.5 49.75C 37.5 48.25 38 46.75 39 45.75L 45 36.25L 51 18.75C 52 15.75 55 13.75 58 13.75L 92 13.75L 92 13.75ZM 45 36.25L 105 36.25M 36.50005 88.75C 36.50005 88.75 24.50005 90.25 24.50005 98.25C 24.50005 108.75 57.00005 102.25 57.00005 115.75C 57.00005 126.25 21.00005 126.25 21.00005 126.25M 98.5 88.75C 98.5 88.75 86.5 90.25 86.5 98.25C 86.5 108.75 119 102.25 119 115.75C 119 126.25 83 126.25 83 126.25"></path></g></g></g><g id="g-root-ic_symp_3dqy0sxd4ap-fill" data-item-order="0" transform="translate(627, 81)"></g><g id="g-root-ic_symp_3dqy0sxd4ap-stroke" data-item-order="0" transform="translate(627, 81)"><g id="ic_symp_3dqy0sxd4ap-stroke" fill="none" stroke-linecap="round" stroke-linejoin="round" stroke-miterlimit="4" stroke="#f4f4f4" stroke-width="1" stroke-opacity="1"><g><path d="M 55.048851 35.608349C 57.450752 29.4914 61.641502 24.24085 67.073502 20.54245C 72.505501 16.844049 78.927002 14.869635 85.498497 14.877035C 110.405998 14.877035 115.782005 35.3848 124.661499 58.418499C 124.813499 58.815048 124.867004 59.242599 124.817001 59.664349C 124.767502 60.086002 124.616005 60.489502 124.375496 60.8395C 124.134995 61.189999 123.813492 61.476498 123.4375 61.6745C 123.061996 61.872501 122.643997 61.976501 122.219002 61.977001L 115.5905 61.977001L 115.5905 72.444C 115.5905 75.220001 114.487495 77.881996 112.524498 79.845001C 110.561996 81.807999 107.899506 82.9105 105.123505 82.9105L 99.889999 82.9105L 99.889999 93.377502M 76.738503 125.122993L 76.738503 103.264999C 81.559502 98.798996 84.921501 92.983002 86.385498 86.5765C 87.849998 80.169998 87.348495 73.471001 84.946503 67.354004C 82.544495 61.237 78.3535 55.9865 72.921501 52.288052C 67.489502 48.589649 61.068501 46.61525 54.496651 46.62265C 29.589401 46.62265 24.213001 67.130501 15.33375 90.164001C 15.18165 90.560501 15.128201 90.987999 15.177999 91.409996C 15.2278 91.831505 15.3794 92.235001 15.619699 92.584999C 15.86005 92.935493 16.18185 93.222 16.557499 93.419998C 16.933151 93.618004 17.351299 93.722 17.775999 93.723L 24.4049 93.723L 24.4049 104.189499C 24.4049 106.9655 25.50765 109.627502 27.470551 111.5905C 29.433399 113.553497 32.09565 114.655998 34.871601 114.655998L 40.10495 114.655998L 40.10495 125.122993M 55.048851 66.403L 55.048851 90.050003M 10 10M 66.872498 78.226501L 43.225502 78.226501M 99.699493 41.804802L 80.182999 41.804802"></path></g></g></g><g id="g-root-ic_wave_1qehi94sxhate-fill" data-item-order="0" transform="translate(819, 81)"></g><g id="g-root-ic_wave_1qehi94sxhate-stroke" data-item-order="0" transform="translate(819, 81)"><g id="ic_wave_1qehi94sxhate-stroke" fill="none" stroke-linecap="round" stroke-linejoin="round" stroke-miterlimit="4" stroke="#f4f4f4" stroke-width="1" stroke-opacity="1"><g><path d="M 22.5 15L 117.5 15C 117.5 15 127.5 15 127.5 25L 127.5 115C 127.5 115 127.5 125 117.5 125L 22.5 125C 22.5 125 12.5 125 12.5 115L 12.5 25C 12.5 25 12.5 15 22.5 15M 12.5 40L 127.5 40M 30 26.25C 30.690355 26.25 31.25 26.809643 31.25 27.5C 31.25 28.190357 30.690355 28.75 30 28.75C 29.309643 28.75 28.75 28.190357 28.75 27.5C 28.75 26.809643 29.309643 26.25 30 26.25M 45 26.25C 45.690353 26.25 46.25 26.809643 46.25 27.5C 46.25 28.190357 45.690353 28.75 45 28.75C 44.309647 28.75 43.75 28.190357 43.75 27.5C 43.75 26.809643 44.309647 26.25 45 26.25M 60 26.25C 60.690353 26.25 61.25 26.809643 61.25 27.5C 61.25 28.190357 60.690353 28.75 60 28.75C 59.309647 28.75 58.75 28.190357 58.75 27.5C 58.75 26.809643 59.309647 26.25 60 26.25M 12.5 82.5L 127.5 82.5M 40 40L 40 125M 40 75L 47.325001 60.355C 49.688591 55.624855 54.542435 52.65646 59.829987 52.707504C 65.117538 52.758556 69.91317 55.820107 72.184998 60.595001L 74.150002 64.714996C 76.321632 69.277351 80.80777 72.292938 85.852356 72.581345C 90.896942 72.869759 95.69754 70.385117 98.375 66.099998L 98.375 66.099998C 100.891281 62.071358 105.29892 59.615891 110.04879 59.596603C 114.79866 59.577324 119.226089 61.996922 121.774994 66.005005L 127.5 75M 40 105.465004L 48.204998 97.259995C 49.858276 95.606674 52.172493 94.792892 54.496708 95.047577C 56.820923 95.302261 58.903996 96.597885 60.160004 98.570007L 66.305 108.225006C 67.68631 110.398148 70.061905 111.737633 72.636276 111.794891C 75.21064 111.852142 77.64344 110.619591 79.119995 108.509995L 83.324997 102.510002C 84.80616 100.390205 87.252487 99.155472 89.837593 99.2229C 92.422707 99.290314 94.801338 100.650879 96.169998 102.845001L 96.389999 103.195C 97.754372 105.376892 100.117378 106.734245 102.689514 106.813568C 105.26165 106.892868 107.703789 105.683685 109.199997 103.590004L 109.199997 103.590004C 110.588638 101.648636 112.798119 100.4599 115.183334 100.370865C 117.568558 100.281837 119.860519 101.302559 121.389999 103.135002L 127.5 110.465004"></path></g></g></g><g id="g-root-tx_advanced_1cws2p4sndjwj-fill" data-item-order="0" transform="translate(50.4609375, 273)"><g id="tx_advanced_1cws2p4sndjwj-fill-merged" stroke="none" fill="#f4f4f4" fill-opacity="1"><g><text style="font-style: normal; font-variant-caps: normal; font-weight: bold; font-width: normal; font-size: 15px; line-height: normal; font-family: Roboto, sans-serif; font-size-adjust: none; font-kerning: auto; font-variant-alternates: normal; font-variant-ligatures: normal; font-variant-numeric: normal; font-variant-east-asian: normal; font-variant-position: normal; font-variant-emoji: normal; font-feature-settings: normal; font-optical-sizing: auto; font-variation-settings: normal; white-space: pre;" transform="translate(70.5390625, 28)"><tspan x="-58.54" y="0" dominant-baseline="ideographic">Advanced Signal </tspan><tspan x="-41.54" y="18" dominant-baseline="ideographic">Intelligence</tspan></text></g></g></g><g id="g-root-tx_advanced_1cws2p4sndjwj-stroke" data-item-order="0" transform="translate(50.4609375, 273)"></g><g id="g-root-tx_multiage_de84vcsngcnj-fill" data-item-order="0" transform="translate(237.4609375, 273)"><g id="tx_multiage_de84vcsngcnj-fill-merged" stroke="none" fill="#f4f4f4" fill-opacity="1"><g><text style="font-style: normal; font-variant-caps: normal; font-weight: bold; font-width: normal; font-size: 15px; line-height: normal; font-family: Roboto, sans-serif; font-size-adjust: none; font-kerning: auto; font-variant-alternates: normal; font-variant-ligatures: normal; font-variant-numeric: normal; font-variant-east-asian: normal; font-variant-position: normal; font-variant-emoji: normal; font-feature-settings: normal; font-optical-sizing: auto; font-variation-settings: normal; white-space: pre;" transform="translate(75.5390625, 28)"><tspan x="-40.54" y="0" dominant-baseline="ideographic">Multi-Agent </tspan><tspan x="-63.54" y="18" dominant-baseline="ideographic">Diagnostic System</tspan></text></g></g></g><g id="g-root-tx_multiage_de84vcsngcnj-stroke" data-item-order="0" transform="translate(237.4609375, 273)"></g><g id="g-root-tx_avldrive_1lt0rl4sxbpj5-fill" data-item-order="0" transform="translate(424.5, 273)"><g id="tx_avldrive_1lt0rl4sxbpj5-fill-merged" stroke="none" fill="#f4f4f4" fill-opacity="1"><g><text style="font-style: normal; font-variant-caps: normal; font-weight: bold; font-width: normal; font-size: 15px; line-height: normal; font-family: Roboto, sans-serif; font-size-adjust: none; font-kerning: auto; font-variant-alternates: normal; font-variant-ligatures: normal; font-variant-numeric: normal; font-variant-east-asian: normal; font-variant-position: normal; font-variant-emoji: normal; font-feature-settings: normal; font-optical-sizing: auto; font-variation-settings: normal; white-space: pre;" transform="translate(80.5, 28)"><tspan x="-68.5" y="0" dominant-baseline="ideographic">Drive Style-Inspired </tspan><tspan x="-30.5" y="18" dominant-baseline="ideographic">Analysis</tspan></text></g></g></g><g id="g-root-tx_avldrive_1lt0rl4sxbpj5-stroke" data-item-order="0" transform="translate(424.5, 273)"></g><g id="g-root-tx_dualllmi_1qaq4rssxpqtj-fill" data-item-order="0" transform="translate(648.0703125, 273)"><g id="tx_dualllmi_1qaq4rssxpqtj-fill-merged" stroke="none" fill="#f4f4f4" fill-opacity="1"><g><text style="font-style: normal; font-variant-caps: normal; font-weight: bold; font-width: normal; font-size: 15px; line-height: normal; font-family: Roboto, sans-serif; font-size-adjust: none; font-kerning: auto; font-variant-alternates: normal; font-variant-ligatures: normal; font-variant-numeric: normal; font-variant-east-asian: normal; font-variant-position: normal; font-variant-emoji: normal; font-feature-settings: normal; font-optical-sizing: auto; font-variation-settings: normal; white-space: pre;" transform="translate(48.9296875, 28)"><tspan x="-31.93" y="0" dominant-baseline="ideographic">Dual LLM </tspan><tspan x="-36.93" y="18" dominant-baseline="ideographic">Integration</tspan></text></g></g></g><g id="g-root-tx_dualllmi_1qaq4rssxpqtj-stroke" data-item-order="0" transform="translate(648.0703125, 273)"></g><g id="g-root-tx_interact_925h9ksxu0hs-fill" data-item-order="0" transform="translate(829.21875, 273)"><g id="tx_interact_925h9ksxu0hs-fill-merged" stroke="none" fill="#f4f4f4" fill-opacity="1"><g><text style="font-style: normal; font-variant-caps: normal; font-weight: bold; font-width: normal; font-size: 15px; line-height: normal; font-family: Roboto, sans-serif; font-size-adjust: none; font-kerning: auto; font-variant-alternates: normal; font-variant-ligatures: normal; font-variant-numeric: normal; font-variant-east-asian: normal; font-variant-position: normal; font-variant-emoji: normal; font-feature-settings: normal; font-optical-sizing: auto; font-variation-settings: normal; white-space: pre;" transform="translate(59.78125, 28)"><tspan x="-35.78" y="0" dominant-baseline="ideographic">Interactive </tspan><tspan x="-47.78" y="18" dominant-baseline="ideographic">Visualizations</tspan></text></g></g></g><g id="g-root-tx_interact_925h9ksxu0hs-stroke" data-item-order="0" transform="translate(829.21875, 273)"></g><g id="g-root-tx_indexes1_1lt1k14snhrt8-fill" data-item-order="0" transform="translate(37.5, 321)"><g id="tx_indexes1_1lt1k14snhrt8-fill-merged" stroke="none" fill="#f4f4f4" fill-opacity="1"><g><text style="font-style: normal; font-variant-caps: normal; font-weight: normal; font-width: normal; font-size: 15px; line-height: normal; font-family: Roboto, sans-serif; font-size-adjust: none; font-kerning: auto; font-variant-alternates: normal; font-variant-ligatures: normal; font-variant-numeric: normal; font-variant-east-asian: normal; font-variant-position: normal; font-variant-emoji: normal; font-feature-settings: normal; font-optical-sizing: auto; font-variation-settings: normal; white-space: pre;" transform="translate(83.5, 55)"><tspan x="-68.5" y="-27" dominant-baseline="ideographic">Indexed signals with  </tspan><tspan x="-51.5" y="-9" dominant-baseline="ideographic">intelligent alias </tspan><tspan x="-40.5" y="9" dominant-baseline="ideographic">patterns for </tspan><tspan x="-71.5" y="27" dominant-baseline="ideographic">seamless cross-OEM </tspan><tspan x="-45.5" y="45" dominant-baseline="ideographic">compatibility.</tspan></text></g></g></g><g id="g-root-tx_indexes1_1lt1k14snhrt8-stroke" data-item-order="0" transform="translate(37.5, 321)"></g><g id="g-root-tx_anorches_qs6jl4snkjk0-fill" data-item-order="0" transform="translate(232.1796875, 321)"><g id="tx_anorches_qs6jl4snkjk0-fill-merged" stroke="none" fill="#f4f4f4" fill-opacity="1"><g><text style="font-style: normal; font-variant-caps: normal; font-weight: normal; font-width: normal; font-size: 15px; line-height: normal; font-family: Roboto, sans-serif; font-size-adjust: none; font-kerning: auto; font-variant-alternates: normal; font-variant-ligatures: normal; font-variant-numeric: normal; font-variant-east-asian: normal; font-variant-position: normal; font-variant-emoji: normal; font-feature-settings: normal; font-optical-sizing: auto; font-variation-settings: normal; white-space: pre;" transform="translate(80.8203125, 55)"><tspan x="-51.82" y="-27" dominant-baseline="ideographic">An orchestrator </tspan><tspan x="-37.82" y="-9" dominant-baseline="ideographic">manages 8 </tspan><tspan x="-61.82" y="9" dominant-baseline="ideographic">specialized agents </tspan><tspan x="-62.82" y="27" dominant-baseline="ideographic">for comprehensive </tspan><tspan x="-68.82" y="45" dominant-baseline="ideographic">automotive analysis.</tspan></text></g></g></g><g id="g-root-tx_anorches_qs6jl4snkjk0-stroke" data-item-order="0" transform="translate(232.1796875, 321)"></g><g id="g-root-tx_usesanin_1hhl0vcsxu03k-fill" data-item-order="0" transform="translate(616.3515625, 321)"><g id="tx_usesanin_1hhl0vcsxu03k-fill-merged" stroke="none" fill="#f4f4f4" fill-opacity="1"><g><text style="font-style: normal; font-variant-caps: normal; font-weight: normal; font-width: normal; font-size: 15px; line-height: normal; font-family: Roboto, sans-serif; font-size-adjust: none; font-kerning: auto; font-variant-alternates: normal; font-variant-ligatures: normal; font-variant-numeric: normal; font-variant-east-asian: normal; font-variant-position: normal; font-variant-emoji: normal; font-feature-settings: normal; font-optical-sizing: auto; font-variation-settings: normal; white-space: pre;" transform="translate(80.6484375, 46)"><tspan x="-61.65" y="-18" dominant-baseline="ideographic">Uses an intelligent </tspan><tspan x="-58.65" y="0" dominant-baseline="ideographic">routing system to </tspan><tspan x="-51.65" y="18" dominant-baseline="ideographic">achieve 90/100 </tspan><tspan x="-68.65" y="36" dominant-baseline="ideographic">diagnostic accuracy.</tspan></text></g></g></g><g id="g-root-tx_usesanin_1hhl0vcsxu03k-stroke" data-item-order="0" transform="translate(616.3515625, 321)"></g><g id="g-root-tx_professi_5v4bssxfvuy-fill" data-item-order="0" transform="translate(428.2265625, 321)"><g id="tx_professi_5v4bssxfvuy-fill-merged" stroke="none" fill="#f4f4f4" fill-opacity="1"><g><text style="font-style: normal; font-variant-caps: normal; font-weight: normal; font-width: normal; font-size: 15px; line-height: normal; font-family: Roboto, sans-serif; font-size-adjust: none; font-kerning: auto; font-variant-alternates: normal; font-variant-ligatures: normal; font-variant-numeric: normal; font-variant-east-asian: normal; font-variant-position: normal; font-variant-emoji: normal; font-feature-settings: normal; font-optical-sizing: auto; font-variation-settings: normal; white-space: pre;" transform="translate(76.7734375, 73)"><tspan x="-64.77" y="-45" dominant-baseline="ideographic">Professional-grade </tspan><tspan x="-33.77" y="-27" dominant-baseline="ideographic">drivability </tspan><tspan x="-46.77" y="-9" dominant-baseline="ideographic">assessments </tspan><tspan x="-58.77" y="9" dominant-baseline="ideographic">providing a 0–10 </tspan><tspan x="-61.77" y="27" dominant-baseline="ideographic">rating system and </tspan><tspan x="-60.77" y="45" dominant-baseline="ideographic">"Driveability DNA" </tspan><tspan x="-31.77" y="63" dominant-baseline="ideographic">profiling.</tspan></text></g></g></g><g id="g-root-tx_professi_5v4bssxfvuy-stroke" data-item-order="0" transform="translate(428.2265625, 321)"></g><g id="g-root-tx_features_140iroosxd2wx-fill" data-item-order="0" transform="translate(810.6953125, 321)"><g id="tx_features_140iroosxd2wx-fill-merged" stroke="none" fill="#f4f4f4" fill-opacity="1"><g><text style="font-style: normal; font-variant-caps: normal; font-weight: normal; font-width: normal; font-size: 15px; line-height: normal; font-family: Roboto, sans-serif; font-size-adjust: none; font-kerning: auto; font-variant-alternates: normal; font-variant-ligatures: normal; font-variant-numeric: normal; font-variant-east-asian: normal; font-variant-position: normal; font-variant-emoji: normal; font-feature-settings: normal; font-optical-sizing: auto; font-variation-settings: normal; white-space: pre;" transform="translate(78.3046875, 73)"><tspan x="-63.3" y="-45" dominant-baseline="ideographic">Features Efficiency </tspan><tspan x="-63.3" y="-27" dominant-baseline="ideographic">Island maps, BSFC </tspan><tspan x="-66.3" y="-9" dominant-baseline="ideographic">heatmaps, and real-</tspan><tspan x="-53.3" y="9" dominant-baseline="ideographic">time 3D surface </tspan><tspan x="-62.3" y="27" dominant-baseline="ideographic">plots for deep-dive </tspan><tspan x="-43.3" y="45" dominant-baseline="ideographic">performance </tspan><tspan x="-30.3" y="63" dominant-baseline="ideographic">analysis.</tspan></text></g></g></g><g id="g-root-tx_features_140iroosxd2wx-stroke" data-item-order="0" transform="translate(810.6953125, 321)"></g></g></g><path id="wmg3sqhrtg64j" d="M65.283 12.757a.35.35 0 0 0 .584.157l5.203-5.141-6.183 3.523.396 1.461zm-2.216-11.7a.35.35 0 0 0-.522.305v3.111l3.276-1.868-2.754-1.548zm3.728 2.105l-4.25 2.421v2.445l6.391-3.644-2.141-1.222zm4.708 3.303a.35.35 0 0 0 0-.609l-1.592-.9-7.365 4.199v1.782a.35.35 0 0 0 .523.305l8.435-4.777z M44.542 2.513c0-.433.355-.783.792-.783s.792.35.792.783-.355.783-.792.783-.792-.35-.792-.783zm59.171 0c0-.433.355-.783.792-.783s.792.35.792.783-.355.783-.792.783-.792-.35-.792-.783zm-85.951 7.636h-1.27v-.487c-.276.201-.864.609-1.881.609-1.202 0-2.274-.794-2.137-2.078.118-1.106 1.153-1.584 1.848-1.727l2.17-.345c0-.539-.29-.956-1.064-1.006s-1.21.305-1.571 1.017l-1.124-.605c1.218-2.631 5.029-1.764 5.029.414v4.207zm-1.27-2.86c.006.396-.062 1.112-.819 1.59-.587.37-1.841.299-1.903-.395-.049-.555.461-.791.906-.898l1.816-.297zm72.662 2.86h-1.27v-.487c-.276.201-.864.609-1.881.609-1.202 0-2.274-.794-2.137-2.078.118-1.106 1.153-1.584 1.848-1.727l2.17-.345c0-.539-.29-.956-1.064-1.006s-1.21.305-1.571 1.017l-1.124-.605c1.218-2.631 5.029-1.764 5.029.414v4.207zm-1.27-2.86c.006.396-.062 1.112-.82 1.59-.587.37-1.841.299-1.903-.395-.049-.555.461-.791.906-.898l1.816-.297zM99.096 10.149H97.85v-8.45h1.246v4.895l2.68-2.559h1.738l-2.633 2.535 2.715 3.578h-1.556l-2.077-2.707-.867.844v1.863zm6.053-6.114h-1.255v6.113h1.255V4.035zm-59.2 0h-1.255v6.113h1.255V4.035zm5.584 6.113V1.697h1.255v2.695c.361-.346 1-.485 1.47-.485 1.452 0 2.477 1.082 2.457 2.448v3.792h-1.27v-3.68c0-.408-.214-1.339-1.315-1.339-.968 0-1.342.756-1.342 1.339v3.681h-1.255zm-4.76-4.894V4.039h.621a.45.45 0 0 0 .45-.45v-.855h1.251v1.305h1.309v1.215h-1.309v3.109c0 .293.105.664.648.664.365 0 .531-.035.736-.07v1.137s-.361.113-.857.113c-1.398 0-1.777-1.051-1.777-1.788V5.254h-1.071zM36.528 4.039h-1.394l2.191 6.106h1.125l1.234-3.918 1.238 3.918h1.129l2.188-6.106h-1.383l-1.359 3.93-1.256-3.93h-1.124l-1.242 3.957-1.348-3.957zM26.212 7.141c-.02 1.566 1.187 3.129 3.223 3.129 1.566 0 2.383-.918 2.734-1.719L31.172 8c-.315.399-.801 1.094-1.738 1.094-1.145 0-1.825-.781-1.891-1.52h4.625c.074-.284.148-.995-.03-1.559-.336-1.064-1.221-2.102-2.839-2.102s-3.088 1.152-3.088 3.227zm1.363-.75h3.348c-.055-.43-.566-1.301-1.623-1.301a1.79 1.79 0 0 0-1.725 1.301zm-8.758.75c.038 1.758 1.277 3.133 3.145 3.133 1.074 0 1.723-.477 1.961-.672v.547h1.242V1.703h-1.258v2.888c-.414-.36-1.062-.68-1.93-.68-1.91 0-3.198 1.473-3.16 3.23zm1.309-.08c0 1.119.723 1.978 1.836 1.978a1.88 1.88 0 0 0 1.94-1.904c0-1.371-1.011-1.99-1.972-1.99s-1.805.798-1.805 1.916zm76.683-.028C96.771 5.275 95.532 3.9 93.664 3.9c-1.074 0-1.723.477-1.961.672v-.547h-1.242v8.22h1.258V9.583c.414.36 1.063.68 1.93.68 1.91 0 3.198-1.473 3.16-3.23zm-1.309.08c0-1.119-.723-1.978-1.836-1.978a1.88 1.88 0 0 0-1.94 1.904c0 1.371 1.011 1.99 1.972 1.99S95.5 8.231 95.5 7.113zM106.441 10.173V4.036h1.254v.382c.361-.346 1-.485 1.47-.485 1.452 0 2.477 1.082 2.457 2.448v3.792h-1.27V6.492c0-.408-.214-1.339-1.315-1.339-.969 0-1.342.756-1.342 1.339v3.681h-1.254zm-30.383-.021V1.824h1.084l4.215 5.777V1.824h1.32v8.328h-1.094l-4.207-5.796v5.796h-1.319zM5.24 10.149H4V2.377h1.014l2.664 3.597 2.654-3.592h1.03v7.766h-1.256V4.762L7.678 8.068 5.24 4.742v5.407z" transform="translate(20, 484)" fill="#ababab88" stroke="none"></path></svg>