<?xml version="1.0" encoding="utf-8" standalone="yes"?>
<!DOCTYPE svg PUBLIC "-//W3C//DTD SVG 1.1//EN" "http://www.w3.org/Graphics/SVG/1.1/DTD/svg11.dtd">
<svg style="fill:none;stroke:none;fill-rule:evenodd;clip-rule:evenodd;stroke-linecap:round;stroke-linejoin:round;stroke-miterlimit:1.5;" version="1.1" xmlns="http://www.w3.org/2000/svg" xmlns:xlink="http://www.w3.org/1999/xlink" width="546" height="413" viewBox="0 0 546 413"><style class="text-font-style fontImports" data-font-family="Roboto">@import url(https://fonts.googleapis.com/css2?family=Roboto:wght@400;700&amp;amp;display=block);</style><g id="items" style="isolation: isolate"><g id="blend" style="mix-blend-mode: normal"><g id="g-root-cp_1_g-1_146qn08qphqto-fill" data-item-order="-185110" transform="translate(21, 151)"><g id="cp_1_g-1_146qn08qphqto-fill-merged" stroke="none" fill="url(#gradient-40ae79-389135447)" fill-opacity="1"><g><path d="M10 52C10 28.804 28.804 10 52 10 H100C116.827 10 131.342 19.895 138.045 34.184C133.829 34.577 129.821 35.581 126.06 37.128C120.892 28.09 111.157 22 100 22 H52C35.431 22 22 35.431 22 52C22 68.568 35.431 82 52 82C68.136 82 84.29 82.221 100.425 81.997C104.611 81.939 108.589 81.024 112.193 79.419C122.685 74.746 130 64.227 130 52C130 50.844 129.935 49.703 129.807 48.581C133.411 46.976 137.389 46.061 141.575 46.003C141.855 47.962 142 49.964 142 52C142 69.554 131.231 84.593 115.939 90.87C112.199 92.405 108.189 93.416 104 93.812C102.683 93.936 101.349 94 100 94 H52C28.804 94 10 75.196 10 52"></path></g></g></g><g id="g-root-cp_1_g-1_146qn08qphqto-stroke" data-item-order="-185110" transform="translate(21, 151)"><g id="cp_1_g-1_146qn08qphqto-stroke" fill="none" stroke-linecap="round" stroke-linejoin="round" stroke-miterlimit="4" stroke="#f4f4f4" stroke-width="2" stroke-opacity="1"><g><path d="M 10 52C 10 28.804 28.804 10 52 10L 100 10C 116.8266 10 131.3421 19.8951 138.045 34.1838C 133.829 34.5775 129.8212 35.581 126.0602 37.128C 120.8915 28.0904 111.157 22 100 22L 52 22C 35.4315 22 22 35.4315 22 52C 22 68.5685 35.4315 82 52 82C 68.1364 82 84.2902 82.221 100.4249 81.9971C 104.6106 81.9389 108.589 81.0236 112.1927 79.4188C 122.6851 74.7459 130 64.2272 130 52C 130 50.844 129.9346 49.7032 129.8073 48.5813C 133.411 46.9764 137.3894 46.0611 141.5751 46.0029C 141.8551 47.9616 142 49.9639 142 52C 142 69.5541 131.2308 84.5929 115.9388 90.8701C 112.1992 92.4051 108.1892 93.4162 104 93.812C 102.6834 93.9364 101.3491 94 100 94L 52 94C 28.804 94 10 75.196 10 52Z"></path></g></g></g><g id="g-root-cp_2_g-2_zqx4vsqphrlx-fill" data-item-order="-185106" transform="translate(111, 175)"><g id="cp_2_g-2_zqx4vsqphrlx-fill-merged" stroke="none" fill="url(#gradient-87aa3f-469929121)" fill-opacity="1"><g><path d="M126.062 66.87C129.801 68.405 133.811 69.416 138 69.812C131.345 84.103 116.828 94 100 94 H52C35.172 94 20.655 84.103 13.953 69.812C18.189 69.416 22.199 68.405 25.938 66.87C31.107 75.909 40.842 82 52 82 H100C111.158 82 120.893 75.909 126.062 66.87 M100 10C101.334 10 102.653 10.062 103.955 10.184C108.171 10.577 112.179 11.581 115.939 13.128C131.217 19.412 142 34.457 142 52C142 54.036 141.855 56.038 141.575 57.997C137.39 57.939 133.411 57.024 129.808 55.419C129.935 54.297 130 53.156 130 52C130 39.773 122.685 29.254 112.192 24.581C108.589 22.976 104.61 22.061 100.425 22.003C92.287 21.89 84.143 21.905 76 21.938C67.857 21.905 59.713 21.89 51.575 22.003C47.39 22.061 43.411 22.976 39.808 24.581C29.315 29.254 22 39.773 22 52C22 53.156 22.065 54.297 22.192 55.419C18.589 57.024 14.61 57.939 10.425 57.997C10.145 56.038 10 54.036 10 52C10 34.457 20.784 19.412 36.061 13.128C39.821 11.581 43.829 10.577 48.045 10.184C49.347 10.062 50.666 10 52 10 H100"></path></g></g></g><g id="g-root-cp_2_g-2_zqx4vsqphrlx-stroke" data-item-order="-185106" transform="translate(111, 175)"><g id="cp_2_g-2_zqx4vsqphrlx-stroke" fill="none" stroke-linecap="round" stroke-linejoin="round" stroke-miterlimit="4" stroke="#f4f4f4" stroke-width="2" stroke-opacity="1"><g><path d="M 52 82C 40.8422 82 31.1071 75.9087 25.9388 66.8701C 22.1992 68.4051 18.1892 69.4162 14 69.812L 13.9531 69.812C 20.655 84.103 35.1717 94 52 94L 76 94L 100 94C 116.8283 94 131.345 84.103 138.047 69.812L 138 69.812C 133.8108 69.4162 129.8008 68.4051 126.0612 66.8701C 120.8929 75.9087 111.1578 82 100 82L 76 82L 52 82ZM 10.4249 57.9971C 10.1449 56.0384 10 54.0361 10 52C 10 34.4567 20.7831 19.4121 36.0602 13.128C 39.8212 11.581 43.829 10.5775 48.045 10.1838C 49.347 10.0622 50.6662 10 52 10L 76 10L 100 10C 101.3338 10 102.653 10.0622 103.955 10.1838C 108.171 10.5775 112.1788 11.581 115.9398 13.128C 131.2169 19.4121 142 34.4567 142 52C 142 54.0361 141.8551 56.0384 141.5751 57.9971C 137.3894 57.9389 133.411 57.0236 129.8073 55.4188C 129.9346 54.2968 130 53.156 130 52C 130 39.7728 122.6851 29.2541 112.1927 24.5813C 108.589 22.9764 104.6106 22.0611 100.4249 22.0029C 92.2868 21.89 84.1431 21.9048 76 21.9385C 67.8569 21.9048 59.7132 21.89 51.5751 22.0029C 47.3894 22.0611 43.411 22.9764 39.8073 24.5813C 29.3149 29.2541 22 39.7728 22 52C 22 53.156 22.0654 54.2968 22.1927 55.4188C 18.589 57.0236 14.6106 57.9389 10.4249 57.9971ZM 10.4249 57.9971C 10.2835 57.999 10.1419 58 10 58M 141.5751 57.9971C 141.7165 57.999 141.8581 58 142 58"></path></g></g></g><g id="g-root-cp_3_g-3_zqx4vsqphrly-fill" data-item-order="-185100" transform="translate(201, 151)"><g id="cp_3_g-3_zqx4vsqphrly-fill-merged" stroke="none" fill="url(#gradient-d4c11a-371111188)" fill-opacity="1"><g><path d="M141.575 46.003C141.855 47.962 142 49.964 142 52C142 69.543 131.217 84.588 115.939 90.872C112.179 92.419 108.171 93.423 103.955 93.816C102.653 93.938 101.334 94 100 94 H52C50.666 94 49.347 93.938 48.045 93.816C43.829 93.423 39.821 92.419 36.061 90.872C20.784 84.588 10 69.543 10 52C10 49.964 10.145 47.962 10.425 46.003C14.61 46.061 18.589 46.976 22.192 48.581C22.065 49.703 22 50.844 22 52C22 64.227 29.315 74.746 39.808 79.419C43.411 81.024 47.39 81.939 51.575 81.997C59.713 82.11 67.857 82.095 76 82.062C84.143 82.095 92.287 82.11 100.425 81.997C104.61 81.939 108.589 81.024 112.192 79.419C122.685 74.746 130 64.227 130 52C130 50.844 129.935 49.703 129.808 48.581C133.411 46.976 137.39 46.061 141.575 46.003 M100 10C116.828 10 131.345 19.897 138.047 34.188C133.811 34.584 129.801 35.595 126.062 37.13C120.893 28.091 111.158 22 100 22 H52C40.842 22 31.107 28.091 25.938 37.13C22.199 35.595 18.189 34.584 14 34.188C20.655 19.897 35.172 10 52 10 H100"></path></g></g></g><g id="g-root-cp_3_g-3_zqx4vsqphrly-stroke" data-item-order="-185100" transform="translate(201, 151)"><g id="cp_3_g-3_zqx4vsqphrly-stroke" fill="none" stroke-linecap="round" stroke-linejoin="round" stroke-miterlimit="4" stroke="#f4f4f4" stroke-width="2" stroke-opacity="1"><g><path d="M 100 22C 111.1578 22 120.8929 28.0913 126.0612 37.1299C 129.8008 35.5949 133.8108 34.5838 138 34.188L 138.047 34.188C 131.345 19.897 116.8283 10 100 10L 52 10C 35.1717 10 20.655 19.897 13.9531 34.188L 14 34.188C 18.1892 34.5838 22.1992 35.5949 25.9388 37.1299C 31.1072 28.0913 40.8422 22 52 22L 100 22ZM 141.5751 46.003C 141.8551 47.9616 142 49.9639 142 52C 142 69.5433 131.2169 84.5879 115.9398 90.872C 112.1788 92.419 108.171 93.4225 103.955 93.8162C 102.653 93.9378 101.3338 94 100 94L 52 94C 50.6662 94 49.347 93.9378 48.045 93.8162C 43.829 93.4225 39.8211 92.419 36.0602 90.872C 20.7831 84.5879 10 69.5433 10 52C 10 49.9639 10.1449 47.9616 10.4249 46.0029C 14.6106 46.0611 18.589 46.9764 22.1927 48.5812C 22.0654 49.7032 22 50.844 22 52C 22 64.2272 29.3149 74.7459 39.8073 79.4187C 43.411 81.0236 47.3894 81.9389 51.5751 81.997C 59.7132 82.11 67.8569 82.0952 76 82.0615C 84.1431 82.0952 92.2868 82.11 100.4249 81.9971C 104.6106 81.9389 108.589 81.0236 112.1927 79.4188C 122.6851 74.7459 130 64.2272 130 52C 130 50.844 129.9346 49.7032 129.8073 48.5813C 133.411 46.9764 137.3894 46.0611 141.5751 46.003ZM 141.5751 46.003C 141.7165 46.001 141.8581 46 142 46M 10.4249 46.0029C 10.2835 46.001 10.1419 46 10.000001 46"></path></g></g></g><g id="g-root-cp_4_g-4_qva4mwqphsen-fill" data-item-order="-185094" transform="translate(291, 175)"><g id="cp_4_g-4_qva4mwqphsen-fill-merged" stroke="none" fill="url(#gradient-c87c35-206254501)" fill-opacity="1"><g><path d="M126.062 66.87C129.801 68.405 133.811 69.416 138 69.812C131.345 84.103 116.828 94 100 94 H52C35.172 94 20.655 84.103 13.953 69.812C18.189 69.416 22.199 68.405 25.938 66.87C31.107 75.909 40.842 82 52 82 H100C111.158 82 120.893 75.909 126.062 66.87 M100 10C101.334 10 102.653 10.062 103.955 10.184C108.171 10.577 112.179 11.581 115.939 13.128C131.217 19.412 142 34.457 142 52C142 54.036 141.855 56.038 141.575 57.997C137.39 57.939 133.411 57.024 129.808 55.419C129.935 54.297 130 53.156 130 52C130 39.773 122.685 29.254 112.192 24.581C108.589 22.976 104.61 22.061 100.425 22.003C92.287 21.89 84.143 21.905 76 21.938C67.857 21.905 59.713 21.89 51.575 22.003C47.39 22.061 43.411 22.976 39.808 24.581C29.315 29.254 22 39.773 22 52C22 53.156 22.065 54.297 22.192 55.419C18.589 57.024 14.61 57.939 10.425 57.997C10.145 56.038 10 54.036 10 52C10 34.457 20.784 19.412 36.061 13.128C39.821 11.581 43.829 10.577 48.045 10.184C49.347 10.062 50.666 10 52 10 H100"></path></g></g></g><g id="g-root-cp_4_g-4_qva4mwqphsen-stroke" data-item-order="-185094" transform="translate(291, 175)"><g id="cp_4_g-4_qva4mwqphsen-stroke" fill="none" stroke-linecap="round" stroke-linejoin="round" stroke-miterlimit="4" stroke="#f4f4f4" stroke-width="2" stroke-opacity="1"><g><path d="M 52 82C 40.8422 82 31.1071 75.9087 25.9388 66.8701C 22.1992 68.4051 18.1892 69.4162 14 69.812L 13.9531 69.812C 20.655 84.103 35.1717 94 52 94L 76 94L 100 94C 116.8283 94 131.345 84.103 138.047 69.812L 138 69.812C 133.8108 69.4162 129.8008 68.4051 126.0612 66.8701C 120.8929 75.9087 111.1578 82 100 82L 76 82L 52 82ZM 10.4249 57.9971C 10.1449 56.0384 10 54.0361 10 52C 10 34.4567 20.7831 19.4121 36.0602 13.128C 39.8212 11.581 43.829 10.5775 48.045 10.1838C 49.347 10.0622 50.6662 10 52 10L 76 10L 100 10C 101.3338 10 102.653 10.0622 103.955 10.1838C 108.171 10.5775 112.1788 11.581 115.9398 13.128C 131.2169 19.4121 142 34.4567 142 52C 142 54.0361 141.8551 56.0384 141.5751 57.9971C 137.3894 57.9389 133.411 57.0236 129.8073 55.4188C 129.9346 54.2968 130 53.156 130 52C 130 39.7728 122.6851 29.2541 112.1927 24.5813C 108.589 22.9764 104.6106 22.0611 100.4249 22.0029C 92.2868 21.89 84.1431 21.9048 76 21.9385C 67.8569 21.9048 59.7132 21.89 51.5751 22.0029C 47.3894 22.0611 43.411 22.9764 39.8073 24.5813C 29.3149 29.2541 22 39.7728 22 52C 22 53.156 22.0654 54.2968 22.1927 55.4188C 18.589 57.0236 14.6106 57.9389 10.4249 57.9971ZM 10.4249 57.9971C 10.2835 57.999 10.1419 58 10 58M 141.5751 57.9971C 141.7165 57.999 141.8581 58 142 58"></path></g></g></g><g id="g-root-cp_5_g-5_vb3mrcqphse8-fill" data-item-order="-185088" transform="translate(381, 151)"><defs><linearGradient id="gradient-40ae79-389135447" x2="0" y2="1"><stop offset="0" stop-color="#3bc482"></stop><stop offset="1" stop-color="#449870"></stop></linearGradient><linearGradient id="gradient-87aa3f-469929121" x2="0" y2="1"><stop offset="0" stop-color="#91bb39"></stop><stop offset="1" stop-color="#7d9844"></stop></linearGradient><linearGradient id="gradient-d4c11a-371111188" x2="0" y2="1"><stop offset="0" stop-color="#efd80d"></stop><stop offset="1" stop-color="#b8a926"></stop></linearGradient><linearGradient id="gradient-c87c35-206254501" x2="0" y2="1"><stop offset="0" stop-color="#de8431"></stop><stop offset="1" stop-color="#b27338"></stop></linearGradient><linearGradient id="gradient-d5514c-497200298" x2="0" y2="1"><stop offset="0" stop-color="#e45752"></stop><stop offset="1" stop-color="#c54a46"></stop></linearGradient></defs><g id="cp_5_g-5_vb3mrcqphse8-fill-merged" stroke="none" fill="url(#gradient-d5514c-497200298)" fill-opacity="1"><g><path d="M142 52C142 28.804 123.196 10 100 10 H52C35.173 10 20.658 19.895 13.955 34.184C18.171 34.577 22.179 35.581 25.94 37.128C31.108 28.09 40.843 22 52 22 H100C116.568 22 130 35.431 130 52C130 68.568 116.568 82 100 82C83.864 82 67.71 82.221 51.575 81.997C47.389 81.939 43.411 81.024 39.807 79.419C29.315 74.746 22 64.227 22 52C22 50.844 22.065 49.703 22.193 48.581C18.589 46.976 14.611 46.061 10.425 46.003C10.145 47.962 10 49.964 10 52C10 69.554 20.769 84.593 36.061 90.87C39.801 92.405 43.811 93.416 48 93.812C49.317 93.936 50.651 94 52 94 H100C123.196 94 142 75.196 142 52"></path></g></g></g><g id="g-root-cp_5_g-5_vb3mrcqphse8-stroke" data-item-order="-185088" transform="translate(381, 151)"><g id="cp_5_g-5_vb3mrcqphse8-stroke" fill="none" stroke-linecap="round" stroke-linejoin="round" stroke-miterlimit="4" stroke="#f4f4f4" stroke-width="2" stroke-opacity="1"><g><path d="M 142 52C 142 28.804 123.196 10 100 10L 52 10C 35.1734 10 20.6579 19.8951 13.955 34.1838C 18.171 34.5775 22.1788 35.581 25.9398 37.128C 31.1085 28.0904 40.843 22 52 22L 100 22C 116.5685 22 130 35.4315 130 52C 130 68.5685 116.5685 82 100 82C 83.8636 82 67.7098 82.221 51.5751 81.9971C 47.3894 81.9389 43.411 81.0236 39.8073 79.4188C 29.3149 74.7459 22 64.2272 22 52C 22 50.844 22.0654 49.7032 22.1927 48.5813C 18.589 46.9764 14.6106 46.0611 10.4249 46.0029C 10.1449 47.9616 10 49.9639 10 52C 10 69.5541 20.7692 84.5929 36.0612 90.8701C 39.8008 92.4051 43.8108 93.4162 48 93.812C 49.3166 93.9364 50.6509 94 52 94L 100 94C 123.196 94 142 75.196 142 52Z"></path></g></g></g><g id="g-root-tx_cieprosc_mfgmigqpht6x-fill" data-item-order="0" transform="translate(142.4296875, 3)"><g id="tx_cieprosc_mfgmigqpht6x-fill-merged" stroke="none" fill="#f4f4f4" fill-opacity="1"><g><text style="font-style: normal; font-variant-caps: normal; font-weight: bold; font-width: normal; font-size: 20px; line-height: normal; font-family: Roboto, sans-serif; font-size-adjust: none; font-kerning: auto; font-variant-alternates: normal; font-variant-ligatures: normal; font-variant-numeric: normal; font-variant-east-asian: normal; font-variant-position: normal; font-variant-emoji: normal; font-feature-settings: normal; font-optical-sizing: auto; font-variation-settings: normal; white-space: pre;" transform="translate(130.5703125, 22)"><tspan x="-118.57" y="12" dominant-baseline="ideographic">CIE Pro's Core Capabilities</tspan></text></g></g></g><g id="g-root-tx_cieprosc_mfgmigqpht6x-stroke" data-item-order="0" transform="translate(142.4296875, 3)"></g><g id="g-root-tx_nextgeno_18mjvncqzvfv1-fill" data-item-order="0" transform="translate(50.484375, 51)"><g id="tx_nextgeno_18mjvncqzvfv1-fill-merged" stroke="none" fill="#43dd93" fill-opacity="1"><g><text style="font-style: normal; font-variant-caps: normal; font-weight: normal; font-width: normal; font-size: 12px; line-height: normal; font-family: Roboto, sans-serif; font-size-adjust: none; font-kerning: auto; font-variant-alternates: normal; font-variant-ligatures: normal; font-variant-numeric: normal; font-variant-east-asian: normal; font-variant-position: normal; font-variant-emoji: normal; font-feature-settings: normal; font-optical-sizing: auto; font-variation-settings: normal; white-space: pre;" transform="translate(46.515625, 24)"><tspan x="-24.52" y="0" dominant-baseline="ideographic">Next-Gen </tspan><tspan x="-34.52" y="14" dominant-baseline="ideographic">Optimization</tspan></text></g></g></g><g id="g-root-tx_nextgeno_18mjvncqzvfv1-stroke" data-item-order="0" transform="translate(50.484375, 51)"></g><g id="g-root-tx_explaina_142d52wqzznyh-fill" data-item-order="0" transform="translate(208, 51)"><g id="tx_explaina_142d52wqzznyh-fill-merged" stroke="none" fill="#ffe711" fill-opacity="1"><g><text style="font-style: normal; font-variant-caps: normal; font-weight: normal; font-width: normal; font-size: 12px; line-height: normal; font-family: Roboto, sans-serif; font-size-adjust: none; font-kerning: auto; font-variant-alternates: normal; font-variant-ligatures: normal; font-variant-numeric: normal; font-variant-east-asian: normal; font-variant-position: normal; font-variant-emoji: normal; font-feature-settings: normal; font-optical-sizing: auto; font-variation-settings: normal; white-space: pre;" transform="translate(69, 24)"><tspan x="-57" y="0" dominant-baseline="ideographic">Explainable AI &amp; Risk </tspan><tspan x="-31" y="14" dominant-baseline="ideographic">Awareness</tspan></text></g></g></g><g id="g-root-tx_explaina_142d52wqzznyh-stroke" data-item-order="0" transform="translate(208, 51)"></g><g id="g-root-tx_asamtool_1d3mlfcqzfyth-fill" data-item-order="0" transform="translate(398.921875, 51)"><g id="tx_asamtool_1d3mlfcqzfyth-fill-merged" stroke="none" fill="#fb6762" fill-opacity="1"><g><text style="font-style: normal; font-variant-caps: normal; font-weight: normal; font-width: normal; font-size: 12px; line-height: normal; font-family: Roboto, sans-serif; font-size-adjust: none; font-kerning: auto; font-variant-alternates: normal; font-variant-ligatures: normal; font-variant-numeric: normal; font-variant-east-asian: normal; font-variant-position: normal; font-variant-emoji: normal; font-feature-settings: normal; font-optical-sizing: auto; font-variation-settings: normal; white-space: pre;" transform="translate(58.078125, 24)"><tspan x="-46.08" y="0" dominant-baseline="ideographic">ASAM Toolchain </tspan><tspan x="-30.08" y="14" dominant-baseline="ideographic">Integration</tspan></text></g></g></g><g id="g-root-tx_asamtool_1d3mlfcqzfyth-stroke" data-item-order="0" transform="translate(398.921875, 51)"></g><g id="g-root-tx_employsa_4l229kqzfy12-fill" data-item-order="0" transform="translate(38.1015625, 79)"><g id="tx_employsa_4l229kqzfy12-fill-merged" stroke="none" fill="#f4f4f4" fill-opacity="1"><g><text style="font-style: normal; font-variant-caps: normal; font-weight: normal; font-width: normal; font-size: 10.5px; line-height: normal; font-family: Roboto, sans-serif; font-size-adjust: none; font-kerning: auto; font-variant-alternates: normal; font-variant-ligatures: normal; font-variant-numeric: normal; font-variant-east-asian: normal; font-variant-position: normal; font-variant-emoji: normal; font-feature-settings: normal; font-optical-sizing: auto; font-variation-settings: normal; white-space: pre;" transform="translate(58.8984375, 34)"><tspan x="-44.9" y="-12" dominant-baseline="ideographic">Employs advanced </tspan><tspan x="-32.9" y="0" dominant-baseline="ideographic">algorithms to </tspan><tspan x="-46.9" y="12" dominant-baseline="ideographic">significantly reduce </tspan><tspan x="-39.9" y="24" dominant-baseline="ideographic">engine test time.</tspan></text></g></g></g><g id="g-root-tx_employsa_4l229kqzfy12-stroke" data-item-order="0" transform="translate(38.1015625, 79)"></g><g id="g-root-tx_provides_hriv3sqzk6x6-fill" data-item-order="0" transform="translate(208.8125, 79)"><g id="tx_provides_hriv3sqzk6x6-fill-merged" stroke="none" fill="#f4f4f4" fill-opacity="1"><g><text style="font-style: normal; font-variant-caps: normal; font-weight: normal; font-width: normal; font-size: 10.5px; line-height: normal; font-family: Roboto, sans-serif; font-size-adjust: none; font-kerning: auto; font-variant-alternates: normal; font-variant-ligatures: normal; font-variant-numeric: normal; font-variant-east-asian: normal; font-variant-position: normal; font-variant-emoji: normal; font-feature-settings: normal; font-optical-sizing: auto; font-variation-settings: normal; white-space: pre;" transform="translate(68.1875, 34)"><tspan x="-38.19" y="-12" dominant-baseline="ideographic">Provides model </tspan><tspan x="-45.19" y="0" dominant-baseline="ideographic">interpretability and </tspan><tspan x="-56.19" y="12" dominant-baseline="ideographic">confidence intervals for </tspan><tspan x="-53.19" y="24" dominant-baseline="ideographic">risk-aware calibration.</tspan></text></g></g></g><g id="g-root-tx_provides_hriv3sqzk6x6-stroke" data-item-order="0" transform="translate(208.8125, 79)"></g><g id="g-root-tx_seamless_1qbyqd4qzmzgu-fill" data-item-order="0" transform="translate(391.1796875, 79)"><g id="tx_seamless_1qbyqd4qzmzgu-fill-merged" stroke="none" fill="#f4f4f4" fill-opacity="1"><g><text style="font-style: normal; font-variant-caps: normal; font-weight: normal; font-width: normal; font-size: 10.5px; line-height: normal; font-family: Roboto, sans-serif; font-size-adjust: none; font-kerning: auto; font-variant-alternates: normal; font-variant-ligatures: normal; font-variant-numeric: normal; font-variant-east-asian: normal; font-variant-position: normal; font-variant-emoji: normal; font-feature-settings: normal; font-optical-sizing: auto; font-variation-settings: normal; white-space: pre;" transform="translate(65.8203125, 34)"><tspan x="-52.82" y="-12" dominant-baseline="ideographic">Seamlessly integrates </tspan><tspan x="-53.82" y="0" dominant-baseline="ideographic">with industry-standard </tspan><tspan x="-46.82" y="12" dominant-baseline="ideographic">tools for calibration </tspan><tspan x="-17.82" y="24" dominant-baseline="ideographic">export.</tspan></text></g></g></g><g id="g-root-tx_seamless_1qbyqd4qzmzgu-stroke" data-item-order="0" transform="translate(391.1796875, 79)"></g><g id="g-root-ic_opti_1hdth4oqzljid-fill" data-item-order="0" transform="translate(69, 175)"></g><g id="g-root-ic_opti_1hdth4oqzljid-stroke" data-item-order="0" transform="translate(69, 175)"><g id="ic_opti_1hdth4oqzljid-stroke" fill="none" stroke-linecap="round" stroke-linejoin="round" stroke-miterlimit="4" stroke="#f4f4f4" stroke-width="2" stroke-opacity="1"><g><path d="M 28 23.785L 14.965 23.785C 12.63716 23.785057 10.750103 25.672161 10.750103 28C 10.750103 30.327839 12.63716 32.214943 14.965 32.215L 23.785 32.215L 23.785 41.035C 23.785057 43.362839 25.672161 45.249897 28 45.249897C 30.327839 45.249897 32.214943 43.362839 32.215 41.034996L 32.215 28C 32.215 25.672119 30.327881 23.785 28 23.785ZM 41.035 10.75L 28 10.75C 25.672161 10.750057 23.785103 12.63716 23.785103 14.965C 23.785103 17.292839 25.672161 19.179943 28 19.18L 36.82 19.18L 36.82 28C 36.819942 30.327919 38.707077 32.215103 41.034996 32.215103C 43.362923 32.215103 45.250057 30.327919 45.25 28L 45.25 14.965C 45.25 12.637119 43.362881 10.75 41.034996 10.75ZM 10.75 28C 10.749943 30.327919 12.637079 32.215103 14.965 32.215103C 17.292921 32.215103 19.180056 30.327919 19.18 28C 19.180056 25.672079 17.292921 23.784897 14.965 23.784897C 12.637079 23.784897 10.749943 25.672079 10.75 28"></path></g></g></g><g id="g-root-ic_dete_zp1z3sqpou0y-fill" data-item-order="0" transform="translate(249, 175)"></g><g id="g-root-ic_dete_zp1z3sqpou0y-stroke" data-item-order="0" transform="translate(249, 175)"><g id="ic_dete_zp1z3sqpou0y-stroke" fill="none" stroke-linecap="round" stroke-linejoin="round" stroke-miterlimit="4" stroke="#f4f4f4" stroke-width="2" stroke-opacity="1"><g><path d="M 11.125 23.424999L 11.125 18.625C 11.125 17.725 11.725 17.125 12.625 17.125L 17.425014 17.125M 11.125 31.67515L 11.125 36.475151C 11.125 37.375149 11.725 37.975151 12.625 37.975151L 17.425014 37.975151M 38.875 31.67515L 38.875 36.475151C 38.875 37.375149 38.275002 37.975151 37.375 37.975151L 32.424999 37.975151M 32.125 31.67515C 30.775002 34.225151 28.224998 36.02515 25.075001 36.02515C 20.725075 36.02515 17.275061 32.425148 17.275061 28.225149C 17.275061 24.025105 20.875074 20.425104 25.075001 20.425104L 25.222601 20.425104M 35.425003 44.875149C 32.724998 42.175148 29.125 40.52515 25.075001 40.52515C 21.02503 40.52515 17.42503 42.175148 14.72503 44.875149M 25.224998 20.425104L 25.224998 36.02515M 17.275061 28.075001L 27.174999 28.075001M 37.466049 19.112469L 37.466049 16.712469M 10 10M 44.666199 23.912498L 38.666199 11.9125C 38.0662 10.8625 36.5662 10.8625 35.966202 11.9125L 29.9662 23.912498C 29.366199 24.962502 30.116199 26.162498 31.3162 26.162498L 43.3162 26.162498C 44.516197 26.162498 45.266197 24.962502 44.666199 23.912498ZM 37.466202 22.41247L 37.466202 22.41247"></path></g></g></g><g id="g-root-ic_open_147d43cqpor2i-fill" data-item-order="0" transform="translate(429, 175)"></g><g id="g-root-ic_open_147d43cqpor2i-stroke" data-item-order="0" transform="translate(429, 175)"><g id="ic_open_147d43cqpor2i-stroke" fill="none" stroke-linecap="round" stroke-linejoin="round" stroke-miterlimit="4" stroke="#f4f4f4" stroke-width="2" stroke-opacity="1"><g><path d="M 25.3615 40.532501C 24.865322 40.532124 24.389864 40.333515 24.04085 39.980835C 23.691833 39.628162 23.498199 39.150654 23.503 38.654503L 23.503 38.654503C 23.513691 37.634876 24.343319 36.813946 25.363001 36.813999L 30.718 36.813999C 31.744078 36.815655 32.575001 37.647923 32.575001 38.674004L 32.575001 38.674C 32.574173 39.700081 31.742579 40.531673 30.716499 40.532501L 25.3615 40.532501ZM 44.875 33.151001L 44.875 43.017998C 44.875 43.827999 44.219498 44.483501 43.4095 44.483501L 12.6505 44.483501C 11.841126 44.483501 11.185 43.827374 11.185 43.017998L 11.185 33.151001M 44.875 33.151001L 11.185 33.151001M 11.125 18.109001L 11.125 12.982C 11.125 12.172 11.7805 11.5165 12.5905 11.5165L 43.349499 11.5165C 44.1595 11.5165 44.814999 12.172 44.814999 12.982L 44.814999 18.109001M 23.128 25.370499C 22.505512 26.264273 21.625414 26.947107 20.605 27.327999L 20.587 33.151001L 16.795 33.151001L 16.814501 27.316C 14.731259 26.522005 13.357105 24.521292 13.363775 22.291882C 13.370445 20.062469 14.756545 18.070015 16.8445 17.2885L 16.834 21.3535L 18.723999 23.255501L 20.622999 21.365499L 20.635 17.300501C 22.176271 17.887928 23.361214 19.152321 23.847519 20.728422C 24.333824 22.304523 24.067324 24.016758 23.125 25.370499ZM 26.407 33.151001L 26.4265 27.646L 31.1035 27.649L 31.1035 33.151001L 26.408501 33.151001ZM 26.761 17.290001L 30.7735 17.290001L 30.7735 19.27C 30.7735 20.378021 29.875271 21.276249 28.76725 21.276249C 27.659227 21.276249 26.761 20.378021 26.761 19.27L 26.761 17.290001ZM 28.756001 21.2785L 28.756001 27.646M 40.091499 25.445499C 42.0452 24.491652 43.073364 22.308046 42.56398 20.194447C 42.054596 18.080845 40.144588 16.605343 37.970856 16.646215C 35.797127 16.687088 33.943932 18.233349 33.514366 20.364603C 33.084801 22.495859 34.194317 24.639271 36.182495 25.518999L 36.172001 33.151001L 40.091499 33.151001L 40.091499 25.445499ZM 36.314499 21.2785C 36.314377 22.242046 37.095451 23.02322 38.058998 23.02322C 39.022545 23.02322 39.803619 22.242046 39.803497 21.2785C 39.803619 20.314953 39.022545 19.533781 38.058998 19.533781C 37.095451 19.533781 36.314377 20.314953 36.314499 21.2785"></path></g></g></g><g id="g-root-ic_emr_1lvjda0qpsyrr-fill" data-item-order="0" transform="translate(159, 199)"></g><g id="g-root-ic_emr_1lvjda0qpsyrr-stroke" data-item-order="0" transform="translate(159, 199)"><g id="ic_emr_1lvjda0qpsyrr-stroke" fill="none" stroke-linecap="round" stroke-linejoin="round" stroke-miterlimit="4" stroke="#f4f4f4" stroke-width="2" stroke-opacity="1"><g><path d="M 35.875 15.625C 35.875 16.525 35.275002 17.125 34.375 17.125L 31.375 17.125C 30.474998 17.125 29.875 16.525 29.875 15.625L 29.875 12.625C 29.875 11.725 30.474998 11.125 31.375 11.125L 34.375 11.125C 35.275002 11.125 35.875 11.725 35.875 12.625L 35.875 15.625ZM 44.875 24.324894C 44.875 25.22485 44.275002 25.82485 43.375 25.82485L 40.375 25.82485C 39.474998 25.82485 38.875 25.22485 38.875 24.324894L 38.875 21.324896C 38.875 20.424896 39.474998 19.824896 40.375 19.824896L 43.375 19.824896C 44.275002 19.824896 44.875 20.424896 44.875 21.324896L 44.875 24.324894ZM 44.875 34.824852C 44.875 35.72485 44.275002 36.324852 43.375 36.324852L 40.375 36.324852C 39.474998 36.324852 38.875 35.72485 38.875 34.824852L 38.875 31.82485C 38.875 30.92485 39.474998 30.32485 40.375 30.32485L 43.375 30.32485C 44.275002 30.32485 44.875 30.92485 44.875 31.82485L 44.875 34.824852ZM 35.875 43.375C 35.875 44.275002 35.275002 44.875 34.375 44.875L 31.375 44.875C 30.474998 44.875 29.875 44.275002 29.875 43.375L 29.875 40.375C 29.875 39.474998 30.474998 38.875 31.375 38.875L 34.375 38.875C 35.275002 38.875 35.875 39.474998 35.875 40.375L 35.875 43.375ZM 38.875 22.824894L 23.125 28.07485L 30.34375 16.76758M 10 10M 38.875 33.324852L 23.125 28.07485L 30.372999 39.209049M 10 10M 35.574997 16.524969L 39.324997 20.274969M 41.875 25.82485L 41.875 30.32485M 10 10M 35.574997 39.324997L 39.324997 35.724998M 17.125 33.924999C 20.438709 33.924999 23.125 31.238649 23.125 27.924999C 23.125 24.611216 20.438709 21.924925 17.125 21.924925C 13.81129 21.924925 11.125 24.611216 11.125 27.924999C 11.125 31.238649 13.81129 33.924999 17.125 33.924999ZM 17.15494 25.375301L 17.15494 30.624699M 19.674746 27.89485L 14.42548 27.89485"></path></g></g></g><g id="g-root-ic_down_9m588qpszk1-fill" data-item-order="0" transform="translate(339, 199)"></g><g id="g-root-ic_down_9m588qpszk1-stroke" data-item-order="0" transform="translate(339, 199)"><g id="ic_down_9m588qpszk1-stroke" fill="none" stroke-linecap="round" stroke-linejoin="round" stroke-miterlimit="4" stroke="#f4f4f4" stroke-width="2" stroke-opacity="1"><g><path d="M 12.25 45.25L 43.75 45.25C 44.578426 45.25 45.25 44.578426 45.25 43.75L 45.25 12.25C 45.25 11.421573 44.578426 10.75 43.75 10.75L 12.25 10.75C 11.421573 10.75 10.75 11.421573 10.75 12.25L 10.75 43.75C 10.75 44.578426 11.421573 45.25 12.25 45.25ZM 38.8675 25.75C 38.8675 25.957108 39.035393 26.125 39.2425 26.125C 39.449608 26.125 39.6175 25.957108 39.6175 25.75C 39.6175 25.542892 39.449608 25.375 39.2425 25.375C 39.142921 25.374599 39.047306 25.413979 38.976891 25.484392C 38.906479 25.554806 38.867096 25.650421 38.8675 25.75M 34.373501 25.75C 34.373501 25.957108 34.541393 26.125 34.748501 26.125C 34.955608 26.125 35.123501 25.957108 35.123501 25.75C 35.123501 25.542892 34.955608 25.375 34.748501 25.375C 34.648918 25.374599 34.553307 25.413979 34.482891 25.484392C 34.412479 25.554806 34.373096 25.650421 34.373497 25.75M 34.373501 30.25C 34.373501 30.457108 34.541393 30.625 34.748501 30.625C 34.955608 30.625 35.123501 30.457108 35.123501 30.25C 35.123501 30.042892 34.955608 29.875 34.748501 29.875C 34.541393 29.875 34.373501 30.042892 34.373501 30.25M 29.879501 25.75C 29.879501 25.957108 30.047394 26.125 30.254501 26.125C 30.461607 26.125 30.629501 25.957108 30.629501 25.75C 30.629501 25.542892 30.461607 25.375 30.254501 25.375C 30.154921 25.374599 30.059305 25.413979 29.988892 25.484392C 29.91848 25.554806 29.879099 25.650421 29.879499 25.75M 29.879501 30.25C 29.879501 30.457108 30.047394 30.625 30.254501 30.625C 30.461607 30.625 30.629501 30.457108 30.629501 30.25C 30.629501 30.042892 30.461607 29.875 30.254501 29.875C 30.047394 29.875 29.879501 30.042892 29.879501 30.25M 25.3855 25.75C 25.3855 25.957108 25.553394 26.125 25.7605 26.125C 25.967606 26.125 26.1355 25.957108 26.1355 25.75C 26.1355 25.542892 25.967606 25.375 25.7605 25.375C 25.660921 25.374599 25.565306 25.413979 25.494892 25.484392C 25.424479 25.554806 25.385099 25.650421 25.3855 25.75M 25.3855 30.25C 25.3855 30.457108 25.553394 30.625 25.7605 30.625C 25.967606 30.625 26.1355 30.457108 26.1355 30.25C 26.1355 30.042892 25.967606 29.875 25.7605 29.875C 25.553394 29.875 25.3855 30.042892 25.3855 30.25M 29.879501 34.75C 29.879501 34.957108 30.047394 35.125 30.254501 35.125C 30.461607 35.125 30.629501 34.957108 30.629501 34.75C 30.629501 34.542892 30.461607 34.375 30.254501 34.375C 30.047394 34.375 29.879501 34.542892 29.879501 34.75M 27.6325 39.2365C 27.6325 39.443604 27.800394 39.6115 28.0075 39.6115C 28.214607 39.6115 28.3825 39.443604 28.3825 39.2365C 28.3825 39.029392 28.214607 38.8615 28.0075 38.8615C 27.800394 38.8615 27.6325 39.029392 27.6325 39.2365M 25.3855 34.75C 25.3855 34.957108 25.553394 35.125 25.7605 35.125C 25.967606 35.125 26.1355 34.957108 26.1355 34.75C 26.1355 34.542892 25.967606 34.375 25.7605 34.375C 25.553394 34.375 25.3855 34.542892 25.3855 34.75M 29.879501 16.764999C 29.879501 16.972107 30.047394 17.139999 30.254501 17.139999C 30.461607 17.139999 30.629501 16.972107 30.629501 16.764999C 30.629501 16.557894 30.461607 16.389999 30.254501 16.389999C 30.047394 16.389999 29.879501 16.557894 29.879501 16.764999M 29.879501 21.259001C 29.879501 21.466106 30.047394 21.634001 30.254501 21.634001C 30.461607 21.634001 30.629501 21.466106 30.629501 21.259001C 30.629501 21.051893 30.461607 20.884001 30.254501 20.884001C 30.047394 20.884001 29.879501 21.051893 29.879501 21.259001M 25.3855 16.764999C 25.3855 16.972107 25.553394 17.139999 25.7605 17.139999C 25.967606 17.139999 26.1355 16.972107 26.1355 16.764999C 26.1355 16.557894 25.967606 16.389999 25.7605 16.389999C 25.553394 16.389999 25.3855 16.557894 25.3855 16.764999M 25.3855 21.259001C 25.3855 21.466106 25.553394 21.634001 25.7605 21.634001C 25.967606 21.634001 26.1355 21.466106 26.1355 21.259001C 26.1355 21.051893 25.967606 20.884001 25.7605 20.884001C 25.553394 20.884001 25.3855 21.051893 25.3855 21.259001M 20.889999 25.75C 20.889997 25.956524 21.056978 26.124174 21.2635 26.125L 21.2635 26.125C 21.470608 26.125 21.6385 25.957108 21.6385 25.75C 21.6385 25.542892 21.470608 25.375 21.2635 25.375L 21.2635 25.375C 21.057564 25.375822 20.890821 25.542562 20.889999 25.748499M 16.397499 25.75C 16.397499 25.957108 16.565393 26.125 16.772499 26.125C 16.979607 26.125 17.147499 25.957108 17.147499 25.75C 17.147499 25.542892 16.979607 25.375 16.772499 25.375C 16.67292 25.374599 16.577305 25.413979 16.506893 25.484392C 16.43648 25.554806 16.397099 25.650421 16.397499 25.75M 20.8825 30.227499C 20.8825 30.434607 21.050392 30.602499 21.2575 30.602499C 21.464607 30.602499 21.6325 30.434607 21.6325 30.227499C 21.6325 30.020393 21.464607 29.852499 21.2575 29.852499C 21.050392 29.852499 20.8825 30.020393 20.8825 30.227499"></path></g></g></g><g id="g-root-tx_advanced_4hxou0qzn09b-fill" data-item-order="0" transform="translate(119.0078125, 283)"><g id="tx_advanced_4hxou0qzn09b-fill-merged" stroke="none" fill="#a6da37" fill-opacity="1"><g><text style="font-style: normal; font-variant-caps: normal; font-weight: normal; font-width: normal; font-size: 12px; line-height: normal; font-family: Roboto, sans-serif; font-size-adjust: none; font-kerning: auto; font-variant-alternates: normal; font-variant-ligatures: normal; font-variant-numeric: normal; font-variant-east-asian: normal; font-variant-position: normal; font-variant-emoji: normal; font-feature-settings: normal; font-optical-sizing: auto; font-variation-settings: normal; white-space: pre;" transform="translate(67.9921875, 24)"><tspan x="-55.99" y="0" dominant-baseline="ideographic">Advanced Surrogate </tspan><tspan x="-25.99" y="14" dominant-baseline="ideographic">Modeling</tspan></text></g></g></g><g id="g-root-tx_advanced_4hxou0qzn09b-stroke" data-item-order="0" transform="translate(119.0078125, 283)"></g><g id="g-root-tx_automate_1urs5bsqzps7f-fill" data-item-order="0" transform="translate(313.09375, 283)"><g id="tx_automate_1urs5bsqzps7f-fill-merged" stroke="none" fill="#f79438" fill-opacity="1"><g><text style="font-style: normal; font-variant-caps: normal; font-weight: normal; font-width: normal; font-size: 12px; line-height: normal; font-family: Roboto, sans-serif; font-size-adjust: none; font-kerning: auto; font-variant-alternates: normal; font-variant-ligatures: normal; font-variant-numeric: normal; font-variant-east-asian: normal; font-variant-position: normal; font-variant-emoji: normal; font-feature-settings: normal; font-optical-sizing: auto; font-variation-settings: normal; white-space: pre;" transform="translate(53.90625, 17)"><tspan x="-41.91" y="7" dominant-baseline="ideographic">Automated DoE</tspan></text></g></g></g><g id="g-root-tx_automate_1urs5bsqzps7f-stroke" data-item-order="0" transform="translate(313.09375, 283)"></g><g id="g-root-tx_features_4j6q60qzwtu4-fill" data-item-order="0" transform="translate(302.0078125, 297)"><g id="tx_features_4j6q60qzwtu4-fill-merged" stroke="none" fill="#f4f4f4" fill-opacity="1"><g><text style="font-style: normal; font-variant-caps: normal; font-weight: normal; font-width: normal; font-size: 10.5px; line-height: normal; font-family: Roboto, sans-serif; font-size-adjust: none; font-kerning: auto; font-variant-alternates: normal; font-variant-ligatures: normal; font-variant-numeric: normal; font-variant-east-asian: normal; font-variant-position: normal; font-variant-emoji: normal; font-feature-settings: normal; font-optical-sizing: auto; font-variation-settings: normal; white-space: pre;" transform="translate(64.9921875, 34)"><tspan x="-41.99" y="-12" dominant-baseline="ideographic">Features multiple </tspan><tspan x="-52.99" y="0" dominant-baseline="ideographic">sampling methods for </tspan><tspan x="-44.99" y="12" dominant-baseline="ideographic">optimal test space </tspan><tspan x="-23.99" y="24" dominant-baseline="ideographic">coverage.</tspan></text></g></g></g><g id="g-root-tx_features_4j6q60qzwtu4-stroke" data-item-order="0" transform="translate(302.0078125, 297)"></g><g id="g-root-tx_develops_1ly0h6gqzslj4-fill" data-item-order="0" transform="translate(117.5, 311)"><g id="tx_develops_1ly0h6gqzslj4-fill-merged" stroke="none" fill="#f4f4f4" fill-opacity="1"><g><text style="font-style: normal; font-variant-caps: normal; font-weight: normal; font-width: normal; font-size: 10.5px; line-height: normal; font-family: Roboto, sans-serif; font-size-adjust: none; font-kerning: auto; font-variant-alternates: normal; font-variant-ligatures: normal; font-variant-numeric: normal; font-variant-east-asian: normal; font-variant-position: normal; font-variant-emoji: normal; font-feature-settings: normal; font-optical-sizing: auto; font-variation-settings: normal; white-space: pre;" transform="translate(69.5, 34)"><tspan x="-57.5" y="-12" dominant-baseline="ideographic">Develops robust models </tspan><tspan x="-37.5" y="0" dominant-baseline="ideographic">using diverse AI </tspan><tspan x="-56.5" y="12" dominant-baseline="ideographic">techniques for accurate </tspan><tspan x="-28.5" y="24" dominant-baseline="ideographic">predictions.</tspan></text></g></g></g><g id="g-root-tx_develops_1ly0h6gqzslj4-stroke" data-item-order="0" transform="translate(117.5, 311)"></g></g></g><path id="w909m3tuv8vt4" d="M65.283 12.757a.35.35 0 0 0 .584.157l5.203-5.141-6.183 3.523.396 1.461zm-2.216-11.7a.35.35 0 0 0-.522.305v3.111l3.276-1.868-2.754-1.548zm3.728 2.105l-4.25 2.421v2.445l6.391-3.644-2.141-1.222zm4.708 3.303a.35.35 0 0 0 0-.609l-1.592-.9-7.365 4.199v1.782a.35.35 0 0 0 .523.305l8.435-4.777z M44.542 2.513c0-.433.355-.783.792-.783s.792.35.792.783-.355.783-.792.783-.792-.35-.792-.783zm59.171 0c0-.433.355-.783.792-.783s.792.35.792.783-.355.783-.792.783-.792-.35-.792-.783zm-85.951 7.636h-1.27v-.487c-.276.201-.864.609-1.881.609-1.202 0-2.274-.794-2.137-2.078.118-1.106 1.153-1.584 1.848-1.727l2.17-.345c0-.539-.29-.956-1.064-1.006s-1.21.305-1.571 1.017l-1.124-.605c1.218-2.631 5.029-1.764 5.029.414v4.207zm-1.27-2.86c.006.396-.062 1.112-.819 1.59-.587.37-1.841.299-1.903-.395-.049-.555.461-.791.906-.898l1.816-.297zm72.662 2.86h-1.27v-.487c-.276.201-.864.609-1.881.609-1.202 0-2.274-.794-2.137-2.078.118-1.106 1.153-1.584 1.848-1.727l2.17-.345c0-.539-.29-.956-1.064-1.006s-1.21.305-1.571 1.017l-1.124-.605c1.218-2.631 5.029-1.764 5.029.414v4.207zm-1.27-2.86c.006.396-.062 1.112-.82 1.59-.587.37-1.841.299-1.903-.395-.049-.555.461-.791.906-.898l1.816-.297zM99.096 10.149H97.85v-8.45h1.246v4.895l2.68-2.559h1.738l-2.633 2.535 2.715 3.578h-1.556l-2.077-2.707-.867.844v1.863zm6.053-6.114h-1.255v6.113h1.255V4.035zm-59.2 0h-1.255v6.113h1.255V4.035zm5.584 6.113V1.697h1.255v2.695c.361-.346 1-.485 1.47-.485 1.452 0 2.477 1.082 2.457 2.448v3.792h-1.27v-3.68c0-.408-.214-1.339-1.315-1.339-.968 0-1.342.756-1.342 1.339v3.681h-1.255zm-4.76-4.894V4.039h.621a.45.45 0 0 0 .45-.45v-.855h1.251v1.305h1.309v1.215h-1.309v3.109c0 .293.105.664.648.664.365 0 .531-.035.736-.07v1.137s-.361.113-.857.113c-1.398 0-1.777-1.051-1.777-1.788V5.254h-1.071zM36.528 4.039h-1.394l2.191 6.106h1.125l1.234-3.918 1.238 3.918h1.129l2.188-6.106h-1.383l-1.359 3.93-1.256-3.93h-1.124l-1.242 3.957-1.348-3.957zM26.212 7.141c-.02 1.566 1.187 3.129 3.223 3.129 1.566 0 2.383-.918 2.734-1.719L31.172 8c-.315.399-.801 1.094-1.738 1.094-1.145 0-1.825-.781-1.891-1.52h4.625c.074-.284.148-.995-.03-1.559-.336-1.064-1.221-2.102-2.839-2.102s-3.088 1.152-3.088 3.227zm1.363-.75h3.348c-.055-.43-.566-1.301-1.623-1.301a1.79 1.79 0 0 0-1.725 1.301zm-8.758.75c.038 1.758 1.277 3.133 3.145 3.133 1.074 0 1.723-.477 1.961-.672v.547h1.242V1.703h-1.258v2.888c-.414-.36-1.062-.68-1.93-.68-1.91 0-3.198 1.473-3.16 3.23zm1.309-.08c0 1.119.723 1.978 1.836 1.978a1.88 1.88 0 0 0 1.94-1.904c0-1.371-1.011-1.99-1.972-1.99s-1.805.798-1.805 1.916zm76.683-.028C96.771 5.275 95.532 3.9 93.664 3.9c-1.074 0-1.723.477-1.961.672v-.547h-1.242v8.22h1.258V9.583c.414.36 1.063.68 1.93.68 1.91 0 3.198-1.473 3.16-3.23zm-1.309.08c0-1.119-.723-1.978-1.836-1.978a1.88 1.88 0 0 0-1.94 1.904c0 1.371 1.011 1.99 1.972 1.99S95.5 8.231 95.5 7.113zM106.441 10.173V4.036h1.254v.382c.361-.346 1-.485 1.47-.485 1.452 0 2.477 1.082 2.457 2.448v3.792h-1.27V6.492c0-.408-.214-1.339-1.315-1.339-.969 0-1.342.756-1.342 1.339v3.681h-1.254zm-30.383-.021V1.824h1.084l4.215 5.777V1.824h1.32v8.328h-1.094l-4.207-5.796v5.796h-1.319zM5.24 10.149H4V2.377h1.014l2.664 3.597 2.654-3.592h1.03v7.766h-1.256V4.762L7.678 8.068 5.24 4.742v5.407z" transform="translate(420, 389)" fill="#ababab88" stroke="none"></path></svg>